<svg width="16px" height="16px" viewBox="0 0 16 16" version="1.1" xmlns="http://www.w3.org/2000/svg" xmlns:xlink="http://www.w3.org/1999/xlink">
    <desc>Alert</desc>
    <defs></defs>
    <g id="Group-2" transform="translate(0.000000, 4.000000)">
        <path d="M7.05835294,9.83981176 L8.60715294,9.83981176 L8.60715294,4 L7.05835294,4 L7.05835294,9.83981176 Z M7.83275294,10.4762353 C8.29430588,10.4762353 8.67077647,10.8265412 8.67077647,11.2879059 C8.67077647,11.7492706 8.29430588,12.0941176 7.83275294,12.0941176 C7.37665882,12.0941176 7,11.7492706 7,11.2879059 C7,10.8265412 7.37665882,10.4762353 7.83275294,10.4762353 L7.83275294,10.4762353 Z" id="Fill-3"></path>
        <path d="M14.1176471,8 C14.1176471,4.62663529 11.3733647,1.88235294 8,1.88235294 C4.62663529,1.88235294 1.88235294,4.62663529 1.88235294,8 C1.88235294,11.3733647 4.62663529,14.1176471 8,14.1176471 C11.3733647,14.1176471 14.1176471,11.3733647 14.1176471,8 M16,8 C16,12.4112941 12.4112941,16 8,16 C3.58870588,16 0,12.4112941 0,8 C0,3.58870588 3.58870588,0 8,0 C12.4112941,0 16,3.58870588 16,8" id="Page-1"></path>
    </g>
</svg>