<?xml version="1.0" encoding="UTF-8"?>
<svg width="20px" height="20px" viewBox="0 0 20 20" version="1.1" xmlns="http://www.w3.org/2000/svg" xmlns:xlink="http://www.w3.org/1999/xlink">
    <title>Artboard</title>
    <desc>Created with Sketch.</desc>
    <defs></defs>
    <g id="Page-3" stroke="none" stroke-width="1" fill="none" fill-rule="evenodd">
        <g id="Artboard" fill="#0096E7">
            <path d="M2.74035086,10.451853 L14.736626,10.451853 L9.83568838,15.4266178 C9.54584102,15.7207404 9.54269453,16.2054239 9.82884014,16.5033539 L10.0887033,16.7744417 C10.3748489,17.0723717 10.8458971,17.075608 11.1357445,16.7814854 L17.7826145,10.0349414 C18.0724618,9.74081882 18.0724618,9.25918118 17.7826145,8.96505859 L11.1357445,2.2185146 C10.8458971,1.92439201 10.3748489,1.92762831 10.0887033,2.22555831 L9.82884014,2.49664606 C9.54269453,2.79457606 9.54584102,3.27925963 9.83568838,3.57338222 L14.736626,8.54814696 L2.74035086,8.54814696 C2.33315789,8.54814696 2,8.89081405 2,9.30962939 L2,9.69037061 C2,10.1091859 2.33315789,10.451853 2.74035086,10.451853" id="Front"></path>
        </g>
    </g>
</svg>