<svg width="16px" height="15px" viewBox="0 0 16 15" version="1.1" xmlns="http://www.w3.org/2000/svg" xmlns:xlink="http://www.w3.org/1999/xlink">
    <desc>Arrow Left</desc>
    <defs></defs>
    <g id="Elements" stroke="none" stroke-width="1" fill="none" fill-rule="evenodd">
        <g id="Icons" transform="translate(-314.000000, -335.000000)" fill="#0096E7">
            <g id="icons/back" transform="translate(314.000000, 335.000000)">
                <path d="M15.2596491,6.3664321 L3.26318895,6.3664321 L8.16431162,1.52971996 C8.45415898,1.24375944 8.45730547,0.772526117 8.17115986,0.482863844 L7.91129671,0.219298939 C7.62515111,-0.070363334 7.15410287,-0.0735098251 6.86425551,0.212450693 L0.21738552,6.7717742 C-0.0724618401,7.05773472 -0.0724618401,7.52600663 0.21738552,7.81196715 L6.86425551,14.3712907 C7.15410287,14.6572512 7.62515111,14.6541047 7.91129671,14.3644424 L8.17115986,14.1008775 C8.45730547,13.8112152 8.45415898,13.3399819 8.16431162,13.0540214 L3.26318895,8.21730925 L15.2596491,8.21730925 C15.6668421,8.21730925 16,7.88415136 16,7.47695839 L16,7.10678296 C16,6.69958999 15.6668421,6.3664321 15.2596491,6.3664321" id="Icons/back"></path>
            </g>
        </g>
    </g>
</svg>