<svg id="etown-logo" xmlns="http://www.w3.org/2000/svg" viewBox="0 0 164 58.61"><title>logo</title><path d="M6.6,37.31q0,6.86,1.63,9.94a5.29,5.29,0,0,0,5,3.08A9.09,9.09,0,0,0,19.4,48a9.93,9.93,0,0,0,3.26-7.83h0.57A10.67,10.67,0,0,1,20.16,48,11.06,11.06,0,0,1,12,51.08a11.23,11.23,0,0,1-7.81-3.26A13,13,0,0,1,0,37.77,15.05,15.05,0,0,1,4.1,26.83a11.05,11.05,0,0,1,8.06-3.65,10.06,10.06,0,0,1,6.91,2.43q4,3.58,4,11.69H6.6Zm11.09-.79a30.56,30.56,0,0,0-1.11-9.42q-1.12-3.25-3.6-3.25A5,5,0,0,0,8,26.93Q6.6,30,6.6,36.52H17.69Z" style="fill:#c00101"/><path d="M56.75,36.87v2.94q0,1.47.06,2.82,0,4.48-1,6.15-1.41,2.3-5.44,2.3-3.84,0-5.63-1.86a7.34,7.34,0,0,1-1.79-5.31V25.74h-5.1V25.12A11.82,11.82,0,0,0,45.66,19a17.64,17.64,0,0,0,2.12-8.65h1.14V23.89h7.39v1.85H48.92V43.12a23.91,23.91,0,0,0,.25,4.47A2.79,2.79,0,0,0,52,50q2.59,0,3.42-2.81A30.29,30.29,0,0,0,56,39.93V36.87h0.75Z" style="fill:#c00101"/><path d="M87,37.07a13.65,13.65,0,0,1-4.28,10.3,12.43,12.43,0,0,1-17.46.26A13.72,13.72,0,0,1,61,37.07a13.44,13.44,0,0,1,4.28-10.24,12.51,12.51,0,0,1,17.46-.19A13.45,13.45,0,0,1,87,37.07Zm-6.64,0q0-7.1-1.22-10A5.16,5.16,0,0,0,74,23.76,5.06,5.06,0,0,0,69.07,27q-1.47,3.2-1.47,10.11t1.31,10.24A5,5,0,0,0,74,50.51a5.05,5.05,0,0,0,4.93-3.26Q80.4,44,80.4,37.07Z" style="fill:#c00101"/><path d="M108.18,30.13l-6,20.27h-1.28l-9.42-24.6a3.5,3.5,0,0,0-1.41-2,12.11,12.11,0,0,0-3.83-.35V22.78h15.31v0.66q-1.47,0-3,0t-1.5.8a3.88,3.88,0,0,0,.38,1.28l6.25,16.92,4-13.69-0.88-3a5.06,5.06,0,0,0-.92-2,3.56,3.56,0,0,0-2-.35h-1.47V22.78h14.17v0.66q-1.48,0-2.92,0t-1.44.8a5.13,5.13,0,0,0,.32,1.35L117.44,42l4.31-12.56a11.61,11.61,0,0,0,.77-3.46q0-2.56-4.27-2.56V22.78h10.69v0.66a5.49,5.49,0,0,0-3.76,1.19q-1.34,1.19-3,5.93L115.4,50.41h-1.28Z" style="fill:#c00101"/><path d="M142.4,34.84V47.39a4.49,4.49,0,0,0,.19,1.66,1.34,1.34,0,0,0,.61.38,7.37,7.37,0,0,0,1.73.32,22.12,22.12,0,0,0,2.22.13v0.62H130.74V49.89q1.41,0,2.78-.13a10.28,10.28,0,0,0,2.46-.51,2.73,2.73,0,0,0,.38-1.86V28q0-.58,0-1.15a1.54,1.54,0,0,0-.29-0.9l-0.39-.64q-0.64-.45-4.88-0.45V24.24l11.61-1.1v8.25a12.63,12.63,0,0,1,1.66-4.86q1.79-2.94,3.77-3.16t2.56-.22a8.51,8.51,0,0,1,6.39,2.43,6.76,6.76,0,0,1,2,4.86v17a4.51,4.51,0,0,0,.19,1.66,1.35,1.35,0,0,0,.64.39,8.23,8.23,0,0,0,1.85.32q1.34,0.13,2.55.13v0.62H147.63V49.89q1,0,2.36-.13a9.18,9.18,0,0,0,2.36-.51,2.74,2.74,0,0,0,.38-1.86V31.19a16.28,16.28,0,0,0-.51-4.68q-0.83-2.63-3.06-2.63-2.94,0-4.79,3.65A22.48,22.48,0,0,0,142.4,34.84Z" style="fill:#c00101"/><rect x="31.79" width="0.57" height="58.61" style="fill:#c00101"/></svg>